<svg width="35" height="35" viewBox="0 0 35 35" fill="none" xmlns="http://www.w3.org/2000/svg">
<path d="M27.3438 4.375H21.875C21.875 1.96191 19.9131 0 17.5 0C15.0869 0 13.125 1.96191 13.125 4.375H7.65625C5.84473 4.375 4.375 5.84473 4.375 7.65625V31.7188C4.375 33.5303 5.84473 35 7.65625 35H27.3438C29.1553 35 30.625 33.5303 30.625 31.7188V7.65625C30.625 5.84473 29.1553 4.375 27.3438 4.375ZM10.9375 28.9844C10.0283 28.9844 9.29688 28.2529 9.29688 27.3438C9.29688 26.4346 10.0283 25.7031 10.9375 25.7031C11.8467 25.7031 12.5781 26.4346 12.5781 27.3438C12.5781 28.2529 11.8467 28.9844 10.9375 28.9844ZM10.9375 22.4219C10.0283 22.4219 9.29688 21.6904 9.29688 20.7812C9.29688 19.8721 10.0283 19.1406 10.9375 19.1406C11.8467 19.1406 12.5781 19.8721 12.5781 20.7812C12.5781 21.6904 11.8467 22.4219 10.9375 22.4219ZM10.9375 15.8594C10.0283 15.8594 9.29688 15.1279 9.29688 14.2188C9.29688 13.3096 10.0283 12.5781 10.9375 12.5781C11.8467 12.5781 12.5781 13.3096 12.5781 14.2188C12.5781 15.1279 11.8467 15.8594 10.9375 15.8594ZM17.5 2.73438C18.4092 2.73438 19.1406 3.46582 19.1406 4.375C19.1406 5.28418 18.4092 6.01562 17.5 6.01562C16.5908 6.01562 15.8594 5.28418 15.8594 4.375C15.8594 3.46582 16.5908 2.73438 17.5 2.73438ZM26.25 27.8906C26.25 28.1914 26.0039 28.4375 25.7031 28.4375H15.8594C15.5586 28.4375 15.3125 28.1914 15.3125 27.8906V26.7969C15.3125 26.4961 15.5586 26.25 15.8594 26.25H25.7031C26.0039 26.25 26.25 26.4961 26.25 26.7969V27.8906ZM26.25 21.3281C26.25 21.6289 26.0039 21.875 25.7031 21.875H15.8594C15.5586 21.875 15.3125 21.6289 15.3125 21.3281V20.2344C15.3125 19.9336 15.5586 19.6875 15.8594 19.6875H25.7031C26.0039 19.6875 26.25 19.9336 26.25 20.2344V21.3281ZM26.25 14.7656C26.25 15.0664 26.0039 15.3125 25.7031 15.3125H15.8594C15.5586 15.3125 15.3125 15.0664 15.3125 14.7656V13.6719C15.3125 13.3711 15.5586 13.125 15.8594 13.125H25.7031C26.0039 13.125 26.25 13.3711 26.25 13.6719V14.7656Z" fill="#00514D" fill-opacity="0.4"/>
</svg>
