<svg width="14" height="20" viewBox="0 0 14 20" fill="none" xmlns="http://www.w3.org/2000/svg">
<path d="M7.80138 17.2719L13.286 14.1783M4.79621 5.52912L10.7399 15.6144M7.26947 3.73329C7.35963 3.88867 7.30106 4.09025 7.13865 4.18354L2.21302 7.013C2.05061 7.10629 1.84586 7.05596 1.7557 6.90059C-0.27704 3.39757 1.04556 2.05704 2.22708 1.37833C3.40861 0.699626 5.23334 0.22443 7.26947 3.73329ZM7.43272 4.01462L13.2021 13.9571C13.2724 14.0781 13.3065 14.2168 13.299 14.3564C13.2039 16.1185 12.9608 17.6625 12.7996 18.5394C12.723 18.9558 12.3015 19.2001 11.8999 19.0606C11.0519 18.7659 9.57782 18.2092 7.98783 17.4074C7.86238 17.3442 7.75857 17.2454 7.68825 17.1242L1.91895 7.18192L7.43272 4.01462Z" stroke="#CAD6FF" stroke-linecap="round"/>
</svg>
