<svg width="21" height="24" viewBox="0 0 21 24" fill="none" xmlns="http://www.w3.org/2000/svg">
<path d="M15.8979 9.08994L15.8979 6.68131C15.8979 3.8329 13.4858 1.5238 10.5104 1.5238C7.53494 1.5238 5.12287 3.8329 5.12286 6.68132V9.08994M10.3565 15.2011C11.0366 15.2011 11.5879 14.6799 11.5879 14.037C11.5879 13.3942 11.0366 12.873 10.3565 12.873C9.67635 12.873 9.12502 13.3942 9.12502 14.037C9.12502 14.6799 9.67635 15.2011 10.3565 15.2011ZM10.3565 15.2011V19.1296M2.96785 22.4762H17.9845C18.8346 22.4762 19.5238 21.8247 19.5238 21.0212V10.545C19.5238 9.74138 18.8346 9.08994 17.9845 9.08994H2.96785C2.11772 9.08994 1.42856 9.74138 1.42856 10.545V21.0212C1.42856 21.8247 2.11772 22.4762 2.96785 22.4762Z" stroke="#00524D" stroke-width="2" stroke-linecap="round"/>
</svg>
